C:\GBW_MyPrograms\KinderuniversiteitApp\Resultaten\Ellis_v10102025\Maui\Maui_v1.mot
version=1
nRows=16
nColumns=29
inDegrees=yes
endheader
                time	         pelvis_tilt	           pelvis_tx	           pelvis_ty	       hip_flexion_l	       hip_flexion_r	        knee_angle_l	        knee_angle_r	       ankle_angle_l	       ankle_angle_r	    lumbar_extension	hamstrings_r/activation	bifemsh_r/activation	glut_max_r/activation	iliopsoas_r/activation	rect_fem_r/activation	  vasti_r/activation	gastroc_r/activation	 soleus_r/activation	tib_ant_r/activation	hamstrings_l/activation	bifemsh_l/activation	glut_max_l/activation	iliopsoas_l/activation	rect_fem_l/activation	  vasti_l/activation	gastroc_l/activation	 soleus_l/activation	tib_ant_l/activation	
          0.42626674	          2.89237801	          0.56693476	          0.93035664	          5.64969282	        -25.99117726	          4.95494752	         -0.71597458	         -8.06764061	        -19.33355113	        -12.95761498	          0.05000012	          0.07776455	          0.05000004	          0.31024851	          0.14725536	          0.05000004	          0.13433976	          0.20696082	          0.05000001	          0.14648591	          0.20795406	          0.06703474	          0.05123126	          0.08506902	          0.18862419	          0.11070469	          0.05136309	          0.17539183	
          0.43479207	          2.65800138	          0.58106420	          0.92882453	          5.43355202	        -25.61056739	          4.90209501	         -2.28771480	         -8.04950324	        -20.34262524	        -12.37141031	          0.05000013	          0.06809009	          0.05000003	          0.29467226	          0.17587985	          0.05000004	          0.11762636	          0.20626473	          0.05000000	          0.14810965	          0.23966273	          0.07884641	          0.05078193	          0.07448547	          0.16515721	          0.11323507	          0.05000001	          0.18354534	
          0.44331741	          2.41134004	          0.59564741	          0.92744228	          5.10803257	        -25.20588649	          4.36197139	         -3.86034321	         -7.83718125	        -21.57091760	        -11.71284696	          0.05000016	          0.05961907	          0.05719663	          0.27432295	          0.18187569	          0.05710445	          0.10299230	          0.18060309	          0.05757736	          0.14291995	          0.26067375	          0.08750642	          0.05000011	          0.06521864	          0.14460978	          0.12045855	          0.05000040	          0.17632260	
          0.45184274	          2.15674120	          0.61062816	          0.92617318	          4.58870450	        -24.86518980	          3.91491241	         -5.30909229	         -7.29848179	        -22.85023266	        -10.99279798	          0.05627708	          0.06725633	          0.10906115	          0.25972930	          0.15924833	          0.05000003	          0.09017889	          0.15813401	          0.10571049	          0.13458229	          0.28575720	          0.08554389	          0.05000004	          0.05710470	          0.12661868	          0.12723765	          0.05000005	          0.16676829	
          0.46036808	          1.89636046	          0.62570305	          0.92507056	          3.88649399	        -24.57513591	          3.81574089	         -6.66441556	         -6.62566104	        -23.69347202	        -10.25251121	          0.05132189	          0.06101581	          0.15129004	          0.24782965	          0.21976457	          0.05710451	          0.07895961	          0.14459631	          0.09255892	          0.12586637	          0.32500494	          0.07490131	          0.05000009	          0.05000025	          0.11086588	          0.14135644	          0.05090082	          0.15127826	
          0.46889341	          1.63155415	          0.64064035	          0.92428203	          3.08137705	        -24.46620687	          3.95460926	         -7.39641844	         -6.08538490	        -23.68489023	         -9.52357379	          0.06943460	          0.09380503	          0.18649386	          0.24117305	          0.19242349	          0.05000006	          0.06913615	          0.12660689	          0.12239564	          0.11872142	          0.37120335	          0.06696357	          0.05000004	          0.05000004	          0.09707291	          0.15435514	          0.06645315	          0.14213284	
          0.47741875	          1.36616910	          0.65528806	          0.92401746	          2.25146595	        -24.51495577	          4.20592363	         -7.51383933	         -5.77077936	        -23.21105559	         -8.83027235	          0.08010931	          0.11799399	          0.20978072	          0.23553754	          0.21813307	          0.05000005	          0.06053484	          0.11085555	          0.11832876	          0.11209847	          0.41910049	          0.06471083	          0.05000003	          0.05000006	          0.08499595	          0.16667508	          0.07471590	          0.13692005	
          0.48594408	          1.10569972	          0.66953746	          0.92434414	          1.47455235	        -24.62835042	          4.41602135	         -7.28738506	         -5.60228462	        -22.59492048	         -8.19222157	          0.09131606	          0.13940176	          0.22581155	          0.23855109	          0.21765821	          0.05000009	          0.05384421	          0.09706387	          0.11680256	          0.10615648	          0.46051722	          0.06703350	          0.05000003	          0.05000007	          0.07442151	          0.17606643	          0.08286522	          0.13436863	
          0.49446942	          0.85693108	          0.68335253	          0.92521073	          0.80724393	        -24.77170280	          4.46560199	         -6.81471542	         -5.53299288	        -21.88284127	         -7.62064236	          0.10133321	          0.15401233	          0.23632825	          0.24491738	          0.21440387	          0.05000013	          0.05000007	          0.08498802	          0.11431088	          0.10082419	          0.48871329	          0.07071097	          0.05000004	          0.05000009	          0.06516268	          0.18323432	          0.09153922	          0.12672654	
          0.50299475	          0.62673102	          0.69672346	          0.92653939	          0.27365539	        -24.90891256	          4.30080175	         -6.20953926	         -5.56482562	        -21.19575117	         -7.12362900	          0.11063134	          0.13485177	          0.24142095	          0.25088479	          0.20795707	          0.05000010	          0.05000004	          0.07441456	          0.11324995	          0.09622189	          0.50188538	          0.07260353	          0.05000006	          0.05000013	          0.05705587	          0.18653045	          0.09887612	          0.11096033	
          0.51152009	          0.42075856	          0.70966701	          0.92826284	         -0.14024082	        -25.02750811	          3.94242186	         -5.52030169	         -5.72709285	        -20.52972226	         -6.70473600	          0.11921397	          0.11807486	          0.24439885	          0.25705352	          0.20037398	          0.05000010	          0.05000007	          0.06515655	          0.11173513	          0.09222520	          0.50238146	          0.07416906	          0.05000011	          0.05000018	          0.05000064	          0.18574052	          0.10460032	          0.09715560	
          0.52004542	          0.24291688	          0.72220948	          0.93033233	         -0.47024384	        -25.11983645	          3.45000883	         -4.76387723	         -6.02659234	        -19.84950142	         -6.36455112	          0.12843310	          0.10338525	          0.24534087	          0.26222740	          0.19155912	          0.05000006	          0.05000013	          0.05705038	          0.11085885	          0.08936512	          0.49547078	          0.07406444	          0.05000012	          0.05000020	          0.05000040	          0.18118420	          0.10830195	          0.08506834	
          0.52857075	          0.09596299	          0.73438055	          0.93271340	         -0.76357135	        -25.17118600	          2.90464585	         -3.96209193	         -6.47240071	        -19.14627488	         -6.10217322	          0.13645880	          0.09052314	          0.24555939	          0.26734064	          0.18294450	          0.05000006	          0.05000025	          0.05142939	          0.11042378	          0.08641024	          0.48753767	          0.07284956	          0.05000072	          0.05000029	          0.05000057	          0.17415820	          0.10913151	          0.07448487	
          0.53709609	         -0.01885501	          0.74620400	          0.93538630	         -1.05282985	        -25.16291228	          2.35986595	         -3.14033570	         -7.06274245	        -18.47771029	         -5.91596776	          0.12137271	          0.07926123	          0.24716465	          0.26941735	          0.17414919	          0.05000005	          0.05000004	          0.05000005	          0.11233696	          0.08460357	          0.48245707	          0.07091752	          0.05000123	          0.05000018	          0.05000020	          0.16494064	          0.10712778	          0.06521811	
          0.54562142	         -0.10131646	          0.75770045	          0.93833704	         -1.34827270	        -25.08443741	          1.82831932	         -2.31368147	         -7.77800107	        -17.87612099	         -5.80371978	          0.10627273	          0.06940037	          0.24971168	          0.26945801	          0.16620025	          0.05000006	          0.05000003	          0.05000005	          0.11455763	          0.08330537	          0.47981854	          0.07034029	          0.05330359	          0.05000013	          0.05000012	          0.15468442	          0.10382937	          0.05710424	
          0.55414676	         -0.15185698	          0.76889111	          0.94152976	         -1.64380715	        -24.93426998	          1.29331355	         -1.49081085	         -8.58646721	        -17.30422591	         -5.76254928	          0.09305127	          0.06076628	          0.23428722	          0.26731485	          0.15895257	          0.05000007	          0.05000002	          0.05000004	          0.11711456	          0.08207001	          0.47714249	          0.07518586	          0.05186948	          0.05000010	          0.05000008	          0.14443669	          0.09924600	          0.05000002	
